inDegrees=no
num_controls=7
num_derivatives=13
num_iterations=116
num_multipliers=7
num_parameters=0
num_slacks=7
num_states=26
objective=5.340256
objective_accelerations=0.547480
objective_balance=0.048501
objective_effort=0.478322
objective_height=4.204164
objective_ligament=0.061788
solver_duration=1299.773732
status=Solve_Succeeded
success=true
DataType=double
version=3
OpenSimVersion=4.4-2022-07-23-0e9fedc
endheader
time	/jointset/ground_pelvis/pelvis_tilt/value	/jointset/ground_pelvis/pelvis_tx/value	/jointset/ground_pelvis/pelvis_ty/value	/jointset/hip_l/hip_flexion_l/value	/jointset/hip_l/hip_adduction_l/value	/jointset/hip_l/hip_rotation_l/value	/jointset/back/lumbar_extension/value	/jointset/patellofemoral_l/patellar_flexion_l/value	/jointset/knee_l/knee_flexion_l/value	/jointset/knee_l/knee_adduction_l/value	/jointset/knee_l/knee_rotation_l/value	/jointset/ankle_l/ankle_angle_l/value	/jointset/subtalar_l/subtalar_angle_l/value	/jointset/ground_pelvis/pelvis_tilt/speed	/jointset/ground_pelvis/pelvis_tx/speed	/jointset/ground_pelvis/pelvis_ty/speed	/jointset/hip_l/hip_flexion_l/speed	/jointset/hip_l/hip_adduction_l/speed	/jointset/hip_l/hip_rotation_l/speed	/jointset/back/lumbar_extension/speed	/jointset/patellofemoral_l/patellar_flexion_l/speed	/jointset/knee_l/knee_flexion_l/speed	/jointset/knee_l/knee_adduction_l/speed	/jointset/knee_l/knee_rotation_l/speed	/jointset/ankle_l/ankle_angle_l/speed	/jointset/subtalar_l/subtalar_angle_l/speed	/forceset/tau_hip_flexion_l	/forceset/tau_hip_adduction_l	/forceset/tau_hip_rotation_l	/forceset/tau_knee_flexion_l	/forceset/tau_ankle_angle_l	/forceset/tau_subtalar_angle_l	/forceset/tau_lumbar_extension	lambda_cid13_p0	lambda_cid13_p1	lambda_cid13_p2	lambda_cid13_p3	lambda_cid13_p4	lambda_cid13_p5	lambda_cid14_p0	/jointset/ground_pelvis/pelvis_tilt/accel	/jointset/ground_pelvis/pelvis_tx/accel	/jointset/ground_pelvis/pelvis_ty/accel	/jointset/hip_l/hip_flexion_l/accel	/jointset/hip_l/hip_adduction_l/accel	/jointset/hip_l/hip_rotation_l/accel	/jointset/back/lumbar_extension/accel	/jointset/patellofemoral_l/patellar_flexion_l/accel	/jointset/knee_l/knee_flexion_l/accel	/jointset/knee_l/knee_adduction_l/accel	/jointset/knee_l/knee_rotation_l/accel	/jointset/ankle_l/ankle_angle_l/accel	/jointset/subtalar_l/subtalar_angle_l/accel	gamma_cid13_p0	gamma_cid13_p1	gamma_cid13_p2	gamma_cid13_p3	gamma_cid13_p4	gamma_cid13_p5	gamma_cid14_p0
1	-0.7336487048456642	-0.1801160393298046	0.6073343791058019	1.973592367638245	-0.3124976024887918	0.06181904028442841	-0.436310145608548	1.016613099278421	1.016613099278741	-0.1744866593864673	0.1745133452287053	-0.04727852953919755	-0.07210742459256182	-0.01414573645775359	-5.643600418998456e-05	-0.004011270167653779	0.02183894778677999	0.0004877068520121764	0.00349381294596943	0.0001759961362594853	0.009035043760433521	0.009035043760429943	3.088727915153645e-05	-0.0001150712882595746	0.002007923821621699	0.0007597635744439918	-0.4760479615426729	0.005381559935562382	-0.01922371614391183	-0.209337971494943	0.230793324498943	0.03608862629267635	0.3726462188916862	27.08134084414183	-20.45226125037501	2.900749954935204	-0.7442734056934558	-727.6137882112852	-43.05148438577566	-8.158704872220074	2.312105654041347	0.479186509602436	1.60321418724743	-6.44239582911463	-0.1526772925868066	-1.417962280805955	-0.04185839834191007	-3.959313728907999	-3.959313728907562	-0.03042920223256821	0.005731848080863076	-0.05070322331638538	-0.1132836340633517	3.075861374708543e-10	1.566737231275649e-09	-4.143288517120541e-09	5.692670552107136e-10	7.573875816112812e-10	-2.052423632974597e-09	9.029656347407586e-10
1.01	-0.7336755588728255	-0.1800927394991663	0.6073742967605298	1.973489821871195	-0.3124996826770464	0.06178264308846041	-0.4363093734012917	1.016505523937105	1.016505523937399	-0.17448644569453	0.1745120587880566	-0.04726093959203055	-0.07210482506627985	0.008765252060885907	0.004716699374307505	0.01199145499430687	-0.04233436695142611	-0.0009044020645825595	-0.01077934837283266	-9.706235285368477e-06	-0.03054851491465755	-0.03054851491465805	1.440099392026373e-05	-0.0001361135798452555	0.00150638343686472	-0.0002412211526117027	-0.4759302368163654	0.005408720762899675	-0.01922730878991124	-0.2093134488289243	0.2307683320312838	0.03609856226818427	0.3725792604034696	27.08161047747551	-20.45747368576559	2.902551777831787	-0.7659784631947656	-727.4978544281983	-43.06574236029267	-8.165284088392946	2.279143301674946	0.4764215846241853	1.598299186205726	-6.402739524870963	-0.1325764661260317	-1.432909815854223	-0.005148887196450734	-3.957636858133583	-3.957636858133599	0.01312288949925494	-0.005109030160007031	-0.05043167955758782	-0.09371043927830765	-1.269717566893735e-09	-5.023457507686209e-09	7.767680245392103e-09	-2.614823246093767e-10	-2.84690860674993e-09	1.055867626857613e-08	-2.525499190222985e-09
1.02	-0.7334735934446177	-0.1800216994082134	0.6075741411679866	1.972745954910937	-0.3125157037094554	0.06160333092763151	-0.4363101027639448	1.016002161024762	1.016002161025137	-0.1744863206191664	0.1745107445719517	-0.04724847549540945	-0.0721122762967184	0.03161815461549324	0.009491616058727873	0.02797408037765211	-0.1064252908375536	-0.002300461978380347	-0.02508918002910213	-0.0001243178322509735	-0.07012247044268587	-0.07012247044268577	1.316395540730576e-05	-0.000120626366704567	0.00098275371202731	-0.001250387769721728	-0.4758125120904578	0.005435881590209195	-0.0192309014359546	-0.2092889261627825	0.2307433395637179	0.03610849824368226	0.3725123019147615	27.07781844372183	-20.46354839650337	2.906288564198401	-0.7974785676361056	-727.4478871749407	-43.06545832542543	-8.196133572904753	2.300488461234809	0.4795427707871024	1.599194231524374	-6.425917658698937	-0.1534674920276111	-1.425296348299624	-0.02764024342573655	-3.957393099495401	-3.957393099495462	-0.02737935288905999	0.01303774902648152	-0.05512109133236159	-0.1149200120743845	-2.731774376571202e-09	-1.107295326051696e-08	2.154230806421252e-08	-1.447286834199001e-09	-6.299935232913316e-09	2.370457891390837e-08	-6.131503830798249e-09
1.03	-0.733043226786995	-0.1799028708856445	0.6079336763573544	1.971361525240256	-0.3125456901177205	0.0612808244849486	-0.4363117640720731	1.01510318836278	1.015103188362622	-0.1744861967573499	0.1745097613699654	-0.04724136941721738	-0.07212984866096656	0.05446123685397415	0.01427735871490897	0.04392611387813787	-0.1704530142100016	-0.00369540549894144	-0.03940984195270853	-0.0002096584894799509	-0.1096624448832317	-0.1096624448832317	8.797236458210506e-06	-7.095742436834285e-05	0.0004337403436382401	-0.002263728573569396	-0.4754025539081342	0.005534144746535557	-0.0192423056332744	-0.2092257507579064	0.2306422666720151	0.0361685483768826	0.3722819351331362	27.06517637613601	-20.49136217711445	2.915231762298821	-0.8331076476415815	-727.1668843957738	-43.11667626933185	-8.251420469695359	2.277125874361933	0.478580017574563	1.592179395452617	-6.390056747014094	-0.1322977545869966	-1.435119622485055	0.0007618191458665293	-3.950855085773914	-3.950855085774038	0.01260932274611636	0.001680604964436304	-0.05549896092327478	-0.09448913684236462	-4.192655197527373e-09	-1.711693167675454e-08	3.533595281217894e-08	-2.636714355316887e-09	-9.7514182921155e-09	3.685593873009554e-08	-9.73932010214506e-09
1.04	-0.732384247753136	-0.1797360869356061	0.6084525261789578	1.969337046921747	-0.3125895839556943	0.06081517772150082	-0.4363143302275645	1.013809104862488	1.013809104861827	-0.1744862016317981	0.1745094246849403	-0.04723989497297082	-0.07215754403771327	0.07734062986073913	0.01908270155262197	0.05983700682431621	-0.234435020402311	-0.005081947920193203	-0.05371724420006084	-0.0003052873060127245	-0.149144638101349	-0.1491446381013487	-1.258331671025172e-05	8.677043036493408e-06	-0.0001435730779851978	-0.003274990269493323	-0.474992595725832	0.005632407903005681	-0.01925370983008324	-0.2091625753530268	0.2305411937803795	0.03622859851023567	0.3720515683514498	27.04842303509784	-20.52007402395432	2.926166434445049	-0.8783437979076963	-726.9523500886587	-43.15360900714289	-8.331325196519391	2.307750614891572	0.4834628070935232	1.590966120662906	-6.416774222671203	-0.1517872721657528	-1.422644413048827	-0.02969787528631277	-3.945836855009668	-3.945836855009699	-0.03078211973292695	0.01903085404023236	-0.06078110197916518	-0.1145041904896275	-5.702700715886122e-09	-2.229993363614716e-08	4.823282335681985e-08	-3.115896789492425e-09	-1.322417396641924e-08	4.847541964592056e-08	-1.288838243180216e-08
1.05	-0.7314962588711892	-0.1795211168511135	0.6091302436388236	1.966673010527093	-0.3126472248387525	0.06020663845657417	-0.4363178411328287	1.012120539799451	1.012120539799032	-0.1744865004817115	0.1745099419300515	-0.04724432369297505	-0.07219526590860706	0.1002660384652149	0.02391796202295011	0.07569614595368535	-0.2983610209572964	-0.006436427017279375	-0.06797806237264983	-0.0003917285363115297	-0.1885539971438718	-0.1885539971438702	-4.741779636849365e-05	9.031980412351438e-05	-0.0007456425447908027	-0.004260699656982977	-0.4743487799248378	0.005807080487922659	-0.01927453601424442	-0.2090857521724213	0.230448061390872	0.03632423508357224	0.3717217188434868	27.04632729040042	-20.56906050438176	2.942906671100196	-0.9662364084065563	-726.5711962407547	-43.23707612639103	-8.43602408010536	2.286267760132693	0.4845539492667496	1.58183355516933	-6.378829713273553	-0.1258120252925441	-1.425932544993427	0.002657533350234453	-3.936325588172837	-3.936325588172785	0.01012557526565015	0.002047296006447836	-0.06043930561949343	-0.08930460323004229	-7.2142826310387e-09	-2.745603008126337e-08	6.110166970760684e-08	-3.572884064701018e-09	-1.66975944099449e-08	6.004702934610928e-08	-1.602310870078145e-08
1.06	-0.730378749547801	-0.1792575949054654	0.6099662416392045	1.963370050778631	-0.3127181172721422	0.05945586460490589	-0.4363220614941308	1.01003831311411	1.010038313113954	-0.1744871557388371	0.1745111388644895	-0.04725487699495927	-0.07224258493144568	0.1232447181459677	0.02879307378372698	0.09149311492689799	-0.362219691166745	-0.007732257986900354	-0.08216416157040184	-0.0004471785565310696	-0.2278769625583453	-0.227876962558342	-8.386478208098234e-05	0.0001446149197277138	-0.00136848947511611	-0.005194420658506497	-0.4737049641237923	0.005981753073028718	-0.01929536219800176	-0.2090089289918095	0.2303549290014343	0.03641987165710634	0.3713918693355407	27.03999253464402	-20.61890667569239	2.961613967489415	-1.063154931744065	-726.258300201672	-43.30680341950791	-8.565194255641174	2.318404830147006	0.4914330651832317	1.578532089431611	-6.403308153563761	-0.1400576466724572	-1.407700618081153	-0.02349963326978615	-3.928558129399875	-3.928558129399857	-0.03110462094358291	0.01356132494321718	-0.0649365946831002	-0.1041065132961473	-8.516076388687673e-09	-3.303690325082435e-08	7.18109344305078e-08	-4.523831976419532e-09	-1.974683866002155e-08	7.052155471646598e-08	-1.900409257209234e-08
